PathFileType	4	(X/Y/Z)	Run_200 01
DataRate	CameraRate	NumFrames	NumMarkers	Units	OrigDataRate	OrigDataStartFrame	OrigNumFrames
120	120	8	42	mm	120	63	128
Frame#	Time	LASI			RASI			LPSI			RPSI			RTH1			RTH2			RTH3			LTH1			LTH2			LTH3			RTB2			RTB3			LTB1			LTB2			LTB3			RCAL			RTOE			RMT5			LCAL			LTOE			LMT5			LACR			RACR			CLAV			C7			RUA1			RUA2			RUA3			RLEL			RMEL			LUA1			LUA2			LUA3			LLEL			LMEL			RFAsuperior			RFAradius			RFAulna			LFAsuperior			LFAradius			LFAulna			RTB1			
		X1	Y1	Z1	X2	Y2	Z2	X3	Y3	Z3	X4	Y4	Z4	X5	Y5	Z5	X6	Y6	Z6	X7	Y7	Z7	X8	Y8	Z8	X9	Y9	Z9	X10	Y10	Z10	X11	Y11	Z11	X12	Y12	Z12	X13	Y13	Z13	X14	Y14	Z14	X15	Y15	Z15	X16	Y16	Z16	X17	Y17	Z17	X18	Y18	Z18	X19	Y19	Z19	X20	Y20	Z20	X21	Y21	Z21	X22	Y22	Z22	X23	Y23	Z23	X24	Y24	Z24	X25	Y25	Z25	X26	Y26	Z26	X27	Y27	Z27	X28	Y28	Z28	X29	Y29	Z29	X30	Y30	Z30	X31	Y31	Z31	X32	Y32	Z32	X33	Y33	Z33	X34	Y34	Z34	X35	Y35	Z35	X36	Y36	Z36	X37	Y37	Z37	X38	Y38	Z38	X39	Y39	Z39	X40	Y40	Z40	X41	Y41	Z41	X42	Y42	Z42	

62	0.741667	480.212928	1000.35749	-458.429436	484.131155	997.711215	-205.943949	308.298477	1016.596555	-362.953178	311.801602	1016.017051	-277.531366	497.031948	822.347365	-167.407565	601.485497	737.031742	-191.002393	577.586757	601.409371	-180.929648	433.503612	856.946024	-500.871266	486.231751	743.486385	-485.574802	416.021135	604.392906	-475.311197	479.589772	405.768432	-183.144668	403.173361	320.298148	-247.090091	430.895882	361.778527	-396.51371	356.042499	272.765757	-442.314393	346.081743	192.994682	-369.094525	234.599999	335.553751	-250.874467	340.39742	143.211292	-257.721233	305.666714	161.36165	-164.220361	192.665535	105.672543	-365.411823	409.620922	72.522672	-367.327519	378.956629	59.124398	-453.763689	468.732632	1428.04653	-526.0239319999999	454.522893	1441.372543	-140.028882	556.284798	1405.439544	-300.586728	431.764182	1502.856977	-338.207631	407.325542	1340.59181	-79.955642	410.00282	1269.719626	-79.55259	308.147958	1276.21618	-53.318352	319.37369	1187.790649	-12.556566	269.482312	1175.689703	-85.225585	442.961391	1350.567893	-580.119341	374.315516	1287.170822	-571.165025	428.131702	1260.689108	-620.618416	409.686574	1157.318205	-663.852611	361.810991	1115.363434	-602.227758	394.33187	1152.381734	-35.058065	525.904028	1103.073754	-124.641634	486.861615	1046.550199	-115.807482	479.037629	1154.495425	-640.187595	605.140532	1137.938174	-516.889415	608.048906	1078.661366	-549.378586	554.667447	413.329881	-237.274185	
63	0.75	480.742965	1002.603952	-458.676823	484.245491	1002.230887	-207.472293	308.999285	1020.752448	-363.928894	312.684845	1020.445842	-278.641832	499.110341	828.712509	-167.197736	604.5654050000001	745.043902	-191.746084	582.223151	608.468868	-182.060398	431.184983	858.58879	-499.750323	480.713131	744.08336	-483.570688	405.138267	607.282829	-472.83909	491.857884	406.643121	-183.550895	419.129717	317.652932	-247.250758	414.957647	364.010366	-394.586309	340.39003	275.413991	-441.117048	329.965793	195.119584	-368.235013	249.555719	322.989736	-249.98525	366.69408	137.533851	-257.195278	331.816004	153.221267	-164.398732	176.724906	107.649539	-365.222164	393.426932	72.784634	-366.920049	362.017035	59.21733	-453.570854	471.360407	1433.041663	-524.251834	451.817687	1446.253988	-139.042825	555.753596	1410.128699	-298.101491	431.867512	1507.231173	-336.730756	402.890396	1346.884614	-78.982555	405.116189	1275.921724	-78.004029	302.644731	1283.497786	-53.785907	312.299506	1195.550981	-12.44383	263.549829	1183.055891	-86.27391900000001	447.08984	1355.531984	-578.681207	377.66439	1292.732324	-572.372797	433.413305	1265.281845	-618.606851	415.446936	1162.03499	-661.948339	366.089633	1120.266415	-601.102323	387.6421	1160.461177	-33.141355	520.851259	1110.051387	-119.229538	481.610348	1053.798596	-111.905501	484.238332	1160.512648	-637.106392	608.006396	1145.224472	-511.669289	611.938853	1085.856499	-543.47757	566.136017	418.221759	-238.067262	
64	0.758333	481.518999	1004.816166	-458.90267	484.826365	1006.944311	-209.106056	310.146226	1025.05363	-365.038688	314.065898	1025.063744	-279.782575	501.061174	835.314846	-166.893383	607.310032	753.155354	-192.586505	586.01701	615.340562	-183.135935	429.33972	860.462935	-498.594685	475.397406	744.857939	-481.566749	394.551032	610.624458	-470.271953	503.598678	406.893658	-184.083264	435.211093	314.434243	-247.48591	399.35089	366.940145	-392.835267	324.908563	278.79636	-439.92489	314.066499	197.804468	-367.146049	265.16437	309.125686	-250.24714	393.847758	131.696261	-256.005479	358.420479	145.334032	-164.282018	161.85297	110.540494	-365.166955	377.24447	72.91507799999999	-366.653715	345.25005	59.386759	-453.287208	473.883597	1438.417327	-522.284915	449.100403	1451.290263	-138.038064	555.197381	1415.130939	-295.470028	432.005217	1511.848299	-335.187303	398.747607	1353.394715	-77.929249	400.582447	1282.32441	-76.435519	297.622563	1290.869424	-53.961578	305.813028	1203.455135	-12.119393	257.962524	1190.486577	-86.8387	450.614163	1361.095545	-577.0442	380.951105	1298.838416	-573.386726	438.538081	1270.349052	-616.595063	420.65814	1167.365668	-660.109029	369.342637	1125.910565	-600.085729	381.516381	1168.80895	-31.088634	515.972694	1117.434906	-114.211751	476.812975	1061.285705	-107.942687	488.825339	1166.992923	-634.121659	610.000057	1152.856341	-506.508437	614.943748	1093.475448	-537.590814	576.873407	422.878519	-238.976407	
65	0.766667	482.535987	1006.968791	-459.156593	485.587718	1011.763008	-210.63756	311.71715	1029.404674	-366.177051	315.647567	1029.81443	-280.782412	502.908657	841.9273889999999	-166.5674	609.662874	760.886838	-193.58063	588.915218	621.89082	-184.174711	427.907941	862.676364	-497.620482	470.279462	745.922118	-479.554252	384.318263	614.421102	-467.766759	514.766825	406.563023	-184.709018	451.449968	310.642497	-247.943811	384.241273	370.565811	-391.329426	309.616376	282.944896	-438.802014	298.630663	201.097811	-366.058039	281.556184	294.199355	-251.551568	421.960373	125.942181	-254.670292	385.291422	137.832597	-163.80923	147.845982	114.648363	-365.231315	361.273582	72.855114	-366.52277	328.771169	59.633566	-452.950517	476.251191	1443.984577	-520.1582540000001	446.483121	1456.242571	-137.030598	554.617136	1420.305081	-292.707136	432.116983	1516.49686	-333.580631	394.960875	1359.874762	-76.783897	396.427317	1288.732455	-74.796807	293.09683	1298.100968	-53.840102	299.863254	1211.208428	-11.546527	252.812662	1197.80448	-86.994817	453.633859	1367.051286	-575.306592	384.211735	1305.297537	-574.107755	443.384714	1275.763657	-614.7343069999999	425.251485	1173.070683	-658.4467079999999	371.630436	1132.09551	-599.171071	375.82813	1176.944143	-28.884444	511.405404	1124.925453	-109.342353	472.53018	1068.74355	-103.853086	492.76006	1173.589151	-631.363293	611.197256	1160.530129	-501.494857	617.127268	1101.242473	-531.840688	586.8128390000001	427.1853	-239.930177	
66	0.775	483.760047	1009.123523	-459.334428	486.160337	1016.679811	-211.923561	313.550239	1033.734217	-367.278234	317.045139	1034.681814	-281.540953	504.733745	848.414786	-166.299065	611.586679	767.886153	-194.682245	590.853607	627.933136	-185.193986	426.805337	865.183036	-496.939608	465.408149	747.343257	-477.522166	374.442027	618.697416	-465.443168	525.343442	405.725706	-185.400268	467.789537	306.367809	-248.698215	369.801976	374.85534	-390.061518	294.74146	287.859268	-437.911644	283.941772	205.077129	-365.260176	298.828755	278.518355	-253.632131	450.900143	120.532064	-253.493969	412.329194	130.795518	-163.06338	134.386381	120.048221	-365.338714	345.729414	72.64724	-366.52557	312.595778	59.954215	-452.589836	478.503006	1449.576565	-517.936302	444.06181	1460.932635	-136.033761	554.011089	1425.483631	-289.838414	432.189902	1521.011902	-331.924945	391.561703	1366.107657	-75.55523599999999	392.693889	1294.944199	-73.037159	289.076898	1305.026951	-53.425259	294.434823	1218.6289	-10.717894	248.182935	1204.84714	-86.843711	456.368477	1373.182566	-573.543765	387.38813	1311.96983	-574.532611	447.816536	1281.415249	-613.096575	429.210491	1178.987064	-657.012825	373.185998	1138.598864	-598.414821	370.573946	1184.646144	-26.468658	507.279375	1132.288783	-104.447051	468.823342	1075.992866	-99.603379	496.026685	1180.118228	-628.8200409999999	611.706083	1168.020134	-496.663378	618.561002	1108.94348	-526.324074	595.9228879999999	431.03865	-240.860154	
67	0.7833329999999999	485.154664	1011.360363	-459.225146	486.330521	1021.69391	-212.995369	315.40468	1038.000805	-368.309983	318.038488	1039.641744	-282.106791	506.602715	854.721912	-166.098768	613.055861	773.994144	-195.760086	591.79813	633.27048	-186.196223	425.933245	867.786176	-496.459749	460.863518	749.130196	-475.510119	365.010401	623.450539	-463.408279	535.340841	404.432347	-186.140335	484.099277	301.769127	-249.710375	356.236528	379.739065	-389.041523	280.66445	293.490663	-437.444059	270.206853	209.780375	-364.948864	316.980559	262.398069	-256.140371	480.260741	115.684416	-252.485874	439.518688	124.271496	-162.256616	121.287646	126.599042	-365.407333	330.661843	72.388852	-366.665973	296.638546	60.338513	-452.223872	480.76077	1455.044874	-515.705465	441.868516	1465.310246	-135.026229	553.3781750000001	1430.505942	-286.903866	432.255818	1525.30967	-330.277132	388.538192	1371.942466	-74.268134	389.389937	1300.785158	-71.168952	285.547651	1311.538434	-52.744112	289.538439	1225.612253	-9.663574000000001	244.113246	1211.491884	-86.449635	459.053258	1379.278331	-571.801792	390.398298	1318.734646	-574.736524	451.727445	1287.182138	-611.670674	432.55578	1184.984235	-655.802124	374.343904	1145.192418	-597.907324	365.808581	1191.853465	-23.818268	503.642932	1139.342589	-99.539192	465.672011	1082.886953	-95.204674	498.67002	1186.485636	-626.470589	611.648929	1175.209666	-492.033047	619.321254	1116.417158	-521.126162	604.206005	434.362379	-241.710071	
68	0.791667	486.684518	1013.723306	-458.674503	486.206406	1026.712088	-214.007194	317.115285	1042.171574	-369.235369	318.730663	1044.594316	-282.634126	508.500172	860.775967	-165.915605	614.036307	779.165118	-196.66997	591.7606050000001	637.753562	-187.157805	425.186374	870.305415	-495.948787	456.719431	751.245997	-473.629892	356.274885	628.583201	-461.759183	544.789623	402.691029	-186.895577	500.197871	297.013908	-250.876928	343.774015	385.067426	-388.335903	267.723941	299.682457	-437.448477	257.495632	215.120403	-365.129355	335.862981	246.106919	-258.721527	509.516379	111.572213	-251.607127	466.865824	118.300571	-161.650968	108.596675	134.071002	-365.397128	315.932516	72.159147	-366.938009	280.792746	60.779097	-451.877888	483.155456	1460.256474	-513.541687	439.869323	1469.419439	-133.960978	552.729074	1435.243198	-283.953389	432.354475	1529.369622	-328.721099	385.844527	1377.302082	-72.94399799999999	386.469073	1306.138705	-69.273894	282.465232	1317.55605	-51.840734	285.187839	1232.083101	-8.43469	240.568176	1217.647095	-85.829818	461.844689	1385.157543	-570.108942	393.187518	1325.465595	-574.8263020000001	455.076677	1292.923667	-610.3996059999999	435.323327	1190.927553	-654.7864060000001	375.359412	1151.679805	-597.694933	361.571321	1198.541771	-20.996454	500.462976	1145.942533	-94.76928100000001	462.970225	1089.291145	-90.686842	500.801756	1192.627992	-624.388783	611.134904	1182.054266	-487.655036	619.48365	1123.53165	-516.3157169999999	611.66755	437.114847	-242.428065	
69	0.8	488.294694	1016.201184	-457.696073	486.148615	1031.528183	-215.069396	318.679537	1046.207798	-369.99213	319.470469	1049.350532	-283.230435	510.309366	866.390921	-165.701306	614.497663	783.363975	-197.328505	590.786186	641.302557	-188.023137	424.476893	872.743686	-495.223561	453.031414	753.628141	-472.054883	348.592888	633.876126	-460.548492	553.706496	400.495422	-187.578708	515.878653	292.224422	-252.076799	332.649144	390.573277	-388.028849	256.071265	306.148174	-437.776074	245.784138	220.863671	-365.660327	355.189282	229.859714	-261.043669	538.212097	108.359748	-251.018829	494.316692	112.918952	-161.472621	96.518542	142.269884	-365.311264	301.354631	71.982449	-367.308589	265.02486	61.297624	-451.600202	485.741805	1465.100942	-511.480231	438.000991	1473.291149	-132.819646	552.091186	1439.606422	-281.037001	432.508764	1533.196604	-327.317896	383.428114	1382.164942	-71.58668400000001	383.866709	1310.953233	-67.445694	279.775923	1323.009836	-50.754438	281.383066	1237.966306	-7.074922	237.4617	1223.230867	-84.98048	464.773279	1390.692082	-568.484376	395.733785	1332.023619	-574.877404	457.888002	1298.493089	-609.221589	437.547156	1196.681275	-653.942426	376.260195	1157.926679	-597.727583	357.862411	1204.664043	-18.122061	497.683499	1151.974652	-90.283148	460.61695	1095.112402	-86.08775300000001	502.550157	1198.488269	-622.720299	610.239048	1188.511581	-483.61512	619.119097	1130.168851	-511.933143	618.27531	439.275334	-242.964023	
